<?xml version="1.0" encoding="UTF-8"?>
<svg width="800px" height="800px" viewBox="0 0 800 800" version="1.1" xmlns="http://www.w3.org/2000/svg" xmlns:xlink="http://www.w3.org/1999/xlink">
    <!-- Generator: Sketch 54.1 (76490) - https://sketchapp.com -->
    <title>项目管理</title>
    <desc>Created with Sketch.</desc>
    <defs>
        <path d="M6.657,105.189 C3.76883128,104.8371 1.33879938,102.85919 0.407915668,100.102597 C-0.522968047,97.3460032 0.210458621,94.2998145 2.294,92.269 C18.002,76.925 46.6,48.107 52.327,36.269 C57.861,24.832 63.778,12.369 66.889,5.804 C68.2171796,2.99338166 71.131571,1.28339899 74.233,1.495 C88.598,2.471 129,5.133 142.623,5.133 C155.891,5.133 203.21,3.618 223.233,0.99 C225.637911,0.676444559 228.047045,1.53727424 229.708674,3.30388147 C231.370303,5.07048871 232.082115,7.52778054 231.622,9.909 C230.263,16.889 226.888,27.163 218.917,40.793 C202.825,68.304 193.062,101.13 167.902,116.067 C166.709234,116.784587 165.343983,117.164784 163.952,117.167 C154.196,117.14 111.425,116.9 90.652,114.775 C67.234,112.375 39.025,107.59 18.534,106.259 C13.858,105.956 9.933,105.583 6.657,105.189 Z" id="path-1"></path>
    </defs>
    <g id="项目管理" stroke="none" stroke-width="1" fill="none" fill-rule="evenodd">
        <g id="Project-management" transform="translate(0.000000, -1.000000)">
            <g id="BG" transform="translate(0.000000, 0.168000)" fill-rule="nonzero">
                <polygon id="bg-white" fill="#FFFFFF" points="0 0.832 800 0.832 800 800.832 0 800.832"></polygon>
                <path d="M800,621.21 L800,273.738 C785.631,270.573 770.213,270.571 755.242,272.425 C724.53,276.258 693.915,286.825 663.274,289.159 C515.008,300.478 413.417,122.615 266.38,118.459 C233.045,117.509 196.41,127.29 170.644,156.659 C156.66,172.6 147.2,193.029 141.33,214.231 C134.482,238.797 138.387,271.477 114.169,286.205 C96.42,296.981 75.123,295.285 56.795,295.494 C37.889,295.694 18.902,294.14 7.10542736e-15,296.167 L7.10542736e-15,732.467 C153.2,689.969 609.634,572.221 800,621.21 Z" id="Path_464" fill="#EDF2F9"></path>
                <path d="M0,732.467 L0,801.167 L800,801.167 L800,621.21 C609.634,572.221 153.2,689.969 0,732.467 Z" id="Path_465" fill="#C6DDFF"></path>
            </g>
            <g id="Iphone" transform="translate(341.000000, 175.168000)" fill-rule="nonzero">
                <g id="Group_93">
                    <path d="M34.578,0.488 L151.898,0.488 C166.898054,0.488 179.058,12.6479462 179.058,27.648 L179.058,326.688 C179.058,341.688054 166.898054,353.848 151.898,353.848 L34.578,353.848 C19.5779462,353.848 7.418,341.688054 7.418,326.688 L7.418,27.648 C7.418,12.6479462 19.5779462,0.488 34.578,0.488 Z" id="Path_2230" fill="#8DBFFC"></path>
                    <path d="M27.373,0.488 L144.693,0.488 C159.693054,0.488 171.853,12.6479462 171.853,27.648 L171.853,326.688 C171.853,341.688054 159.693054,353.848 144.693,353.848 L27.373,353.848 C12.3729462,353.848 0.213,341.688054 0.213,326.688 L0.213,27.648 C0.213,12.6479462 12.3729462,0.488 27.373,0.488 Z" id="Path_2229" fill="#192684"></path>
                    <path d="M32.96,8.474 L137.26,8.474 C151.42997,8.474 162.917,19.9610302 162.917,34.131 L162.917,321.031 C162.917,335.20097 151.42997,346.688 137.26,346.688 L32.96,346.688 C26.154994,346.688 19.6287325,343.984585 14.8170542,339.172532 C10.0053758,334.360478 7.30246954,327.834006 7.303,321.029 L7.303,34.131 C7.303,19.9610302 18.7900302,8.474 32.96,8.474 Z" id="Path_2228" fill="#FFFFFF"></path>
                    <path d="M109.508,19.9 L60.528,19.9 C50.0152598,19.9 41.493,11.3777402 41.493,0.865 L128.542,0.865 C128.542265,5.91330393 126.53702,10.7549332 122.967424,14.3247169 C119.397828,17.8945006 114.556304,19.9 109.508,19.9 Z" id="Path_466" fill="#192684"></path>
                </g>
                <path d="M23.994,51.957 L62.507,51.957 C65.587092,51.957 68.084,54.453908 68.084,57.534 L68.084,96.047 C68.084,99.127092 65.587092,101.624 62.507,101.624 L23.994,101.624 C20.913908,101.624 18.417,99.127092 18.417,96.047 L18.417,57.534 C18.417,54.453908 20.913908,51.957 23.994,51.957 Z" id="Path_2227" fill="#CADCFC"></path>
                <path d="M23.994,118.477 L62.507,118.477 C65.587092,118.477 68.084,120.973908 68.084,124.054 L68.084,162.567 C68.084,165.647092 65.587092,168.144 62.507,168.144 L23.994,168.144 C20.913908,168.144 18.417,165.647092 18.417,162.567 L18.417,124.054 C18.417,120.973908 20.913908,118.477 23.994,118.477 Z" id="Path_2226" fill="#FDBD28"></path>
                <path d="M87.426,50.912 L128.553,50.912 C129.322885,50.912 129.947,51.5361151 129.947,52.306 L129.947,55.094 C129.947,55.4637118 129.800133,55.8182811 129.538707,56.0797069 C129.277281,56.3411326 128.922712,56.488 128.553,56.488 L87.426,56.488 C86.6561151,56.488 86.032,55.8638849 86.032,55.094 L86.032,52.306 C86.032,51.5361151 86.6561151,50.912 87.426,50.912 Z" id="Path_2225" fill="#2355F5"></path>
                <path d="M87.426,102.843 L147.258,102.843 C148.027885,102.843 148.652,103.467115 148.652,104.237 L148.652,107.025 C148.652,107.394712 148.505133,107.749281 148.243707,108.010707 C147.982281,108.272133 147.627712,108.419 147.258,108.419 L87.426,108.419 C86.6561151,108.419 86.032,107.794885 86.032,107.025 L86.032,104.237 C86.032,103.467115 86.6561151,102.843 87.426,102.843 Z" id="Path_2224" fill="#97BFF7"></path>
                <path d="M87.426,137.464 L127.332,137.464 C127.70275,137.462404 128.058863,137.608567 128.321588,137.870166 C128.584313,138.131765 128.732003,138.487246 128.732,138.858 L128.732,141.646 C128.73227,142.016927 128.584696,142.372666 128.321942,142.634482 C128.059188,142.896297 127.702924,143.042597 127.332,143.041 L87.426,143.041 C87.0561149,143.041 86.7013939,142.893995 86.4399394,142.632353 C86.1784849,142.370711 86.0317347,142.015885 86.032,141.646 L86.032,138.858 C86.032,138.088115 86.6561151,137.464 87.426,137.464 Z" id="Path_2223" fill="#CADCFC"></path>
                <path d="M87.426,68.222 L147.258,68.222 C148.027885,68.222 148.652,68.8461151 148.652,69.616 L148.652,72.404 C148.652,72.7737118 148.505133,73.1282811 148.243707,73.3897069 C147.982281,73.6511326 147.627712,73.798 147.258,73.798 L87.426,73.798 C86.6561151,73.798 86.032,73.1738849 86.032,72.404 L86.032,69.616 C86.032,68.8461151 86.6561151,68.222 87.426,68.222 Z" id="Path_2222" fill="#2355F5"></path>
                <path d="M134.478,50.912 L147.258,50.912 C148.027885,50.912 148.652,51.5361151 148.652,52.306 L148.652,55.094 C148.652,55.4637118 148.505133,55.8182811 148.243707,56.0797069 C147.982281,56.3411326 147.627712,56.488 147.258,56.488 L134.478,56.488 C133.708115,56.488 133.084,55.8638849 133.084,55.094 L133.084,52.306 C133.084,51.5361151 133.708115,50.912 134.478,50.912 Z" id="Path_2221" fill="#2355F5"></path>
                <path d="M87.426,120.154 L133.955,120.154 C134.724885,120.154 135.349,120.778115 135.349,121.548 L135.349,124.336 C135.349,124.705712 135.202133,125.060281 134.940707,125.321707 C134.679281,125.583133 134.324712,125.73 133.955,125.73 L87.426,125.73 C86.6561151,125.73 86.032,125.105885 86.032,124.336 L86.032,121.548 C86.032,120.778115 86.6561151,120.154 87.426,120.154 Z" id="Path_2220" fill="#CADCFC"></path>
                <path d="M138.428,120.154 L147.258,120.154 C147.627712,120.154 147.982281,120.300867 148.243707,120.562293 C148.505133,120.823719 148.652,121.178288 148.652,121.548 L148.652,124.336 C148.652,124.705712 148.505133,125.060281 148.243707,125.321707 C147.982281,125.583133 147.627712,125.73 147.258,125.73 L138.428,125.73 C137.658115,125.73 137.034,125.105885 137.034,124.336 L137.034,121.548 C137.034,120.778115 137.658115,120.154 138.428,120.154 Z" id="Path_2219" fill="#CADCFC"></path>
                <path d="M102.007,85.533 L147.433,85.533 C148.202885,85.533 148.827,86.1571151 148.827,86.927 L148.827,89.715 C148.827265,90.084885 148.680515,90.4397113 148.419061,90.7013534 C148.157606,90.9629954 147.802885,91.1100001 147.433,91.11 L102.007,91.11 C101.637115,91.1100001 101.282394,90.9629954 101.020939,90.7013534 C100.759485,90.4397113 100.612735,90.084885 100.613,89.715 L100.613,86.927 C100.613,86.1571151 101.237115,85.533 102.007,85.533 Z" id="Path_2218" fill="#97BFF7"></path>
                <path d="M87.601,85.533 L97.825,85.533 C98.5948849,85.533 99.219,86.1571151 99.219,86.927 L99.219,89.715 C99.219,90.0847118 99.0721326,90.4392811 98.8107069,90.7007069 C98.5492811,90.9621326 98.1947118,91.109 97.825,91.109 L87.601,91.109 C86.8311151,91.109 86.207,90.4848849 86.207,89.715 L86.207,86.927 C86.207,86.1571151 86.8311151,85.533 87.601,85.533 Z" id="Path_2217" fill="#97BFF7"></path>
            </g>
            <g id="calender" transform="translate(45.000000, 483.168000)">
                <path d="M49.016,257.062 L304.3,257.062 C305.521459,257.06185 306.684006,256.537029 307.492,255.621 L366.422,188.836 C367.561452,187.544691 367.810865,185.694152 367.053941,184.147252 C366.297018,182.600353 364.682814,181.661712 362.964,181.769 L68.608,200.124 C66.9795143,200.225363 65.5521544,201.248401 64.933,202.758 L45.076,251.189 C44.5376583,252.5023 44.6890985,253.9975 45.4798392,255.176185 C46.2705798,256.35487 47.5966447,257.062053 49.016,257.062 Z" id="Path_467" fill="#97BFF7" fill-rule="nonzero"></path>
                <polygon id="Path_468" fill="#2355F5" fill-rule="nonzero" points="350.027 13.037 320.434 33.854 301.871 243.06 357.397 192.66"></polygon>
                <path d="M349.459,105.295 L348.118,72.614 L321.992,90.867 C320.805211,91.69616 320.114127,93.0658807 320.152371,94.5131237 C320.190615,95.9603667 320.953076,97.2916766 322.182,98.057 L341.424,110.032 L325.987,126.8 C324.828287,128.058225 324.523499,129.882689 325.21032,131.449221 C325.897141,133.015754 327.445519,134.027727 329.156,134.028 L342.311,134.028 L340.292,206.56 L353.273,195.552 L349.614,109.073 L344.359,109.073 L349.459,105.295 Z" id="Path_469" fill="#192684" fill-rule="nonzero"></path>
                <path d="M100.013,42.486 C94.131,74.906 73.097,187.264 56.869,228.429 C55.5496682,231.753057 55.9624122,235.514781 57.9711225,238.473679 C59.9798329,241.432577 63.32369,243.204453 66.9,243.205 L301,243.205 C302.422104,243.208171 303.624708,242.153376 303.807,240.743 C306.166,222.395 320.807,106.013 320.639,44.611 C320.626326,38.6637907 315.804221,33.8479466 309.857,33.843 L110.637,33.629 C105.419176,33.6220328 100.944975,37.3520774 100.013,42.486 Z" id="Path_470" fill="#4174F2" fill-rule="nonzero"></path>
                <path d="M104.068,31.346 L127.426,9.83 C129.542313,7.87803552 132.229623,6.6574236 135.092,6.348 C159.477,3.711 278.857,-7.726 349.341,12.558 C349.832992,12.7029399 350.195278,13.1214743 350.268204,13.6291603 C350.34113,14.1368463 350.111301,14.6404346 349.68,14.918 L320.761,33.643 C320.548034,33.7808841 320.299705,33.8541672 320.046,33.854 L104.956,33.623 C104.415694,33.6226351 103.930862,33.2910765 103.73455,32.7876953 C103.538238,32.2843142 103.670595,31.7120601 104.068,31.346 Z" id="Path_471" fill="#3478F6" fill-rule="nonzero"></path>
                <path d="M52.377,243.2 C51.4653459,243.202985 50.6143627,242.743517 50.1167596,241.979637 C49.6191565,241.215757 49.5428173,240.251674 49.914,239.419 C55.309,227.313 71.899,187.727 79.592,142.593 C87.803,94.425 99.705,45.522 102.299,35.054 C102.5971,33.8492953 103.681988,33.005861 104.923,33.014 L317.391,33.847 C318.162348,33.8486287 318.895884,34.1813034 319.405282,34.7605216 C319.91468,35.3397399 320.150922,36.1097637 320.054,36.875 C317.02,60.847 296.694,220.175 289.754,241.313 C289.386281,242.425572 288.333379,243.166097 287.162,243.136 C266.976,242.7 82.642,243.122 52.377,243.2 Z" id="Path_472" fill="#C6DDFF" fill-rule="nonzero"></path>
                <path d="M68.709,188.328 C68.709,188.328 66.522,195.82 63.938,203.242 C65.127,199.829 102.049,209.287 104.345,209.928 C127.483203,216.428609 151.843414,217.282511 175.38,212.418 C199.443,207.318 220.624,195.498 240.458,181.374 C256.532,169.928 270.373,155.758 280.595,138.823 C294.601,115.618 304.049,89.53 313.112,64.092 C316.591,54.329 319.812,44.272 320.435,33.854 C320.435,33.854 247.105,170.13 197.223,185.033 C147.341,199.936 68.709,188.328 68.709,188.328 Z" id="Path_473" fill="#4174F2" fill-rule="nonzero"></path>
                <path d="M103.441,33.606 C102.34221,33.6142359 101.368906,34.3167316 101.015,35.357 C97.437,45.829 77.974,100.786 56.515,122.524 C40.215,139.035 16.659,157.287 3.463,167.124 C1.24032628,168.781748 0.0313370603,171.469786 0.265764882,174.232657 C0.500192704,176.995527 2.14479442,179.441439 4.615,180.701 C16.549,186.786 36.532,194.926 56.515,193.901 C88,192.283 106.215,211.421 138.006,208.335 C169.797,205.249 236.474,202.47 272.898,145.364 C309.322,88.258 320.435,35.625 320.435,33.852 C320.435,32.177 124.563,33.463 103.441,33.606 Z" id="Path_474" fill="#FFFFFF" fill-rule="nonzero"></path>
                <g id="Group_104" transform="translate(48.000000, 55.000000)">
                    <path d="M6.657,105.189 C3.76883128,104.8371 1.33879938,102.85919 0.407915668,100.102597 C-0.522968047,97.3460032 0.210458621,94.2998145 2.294,92.269 C18.002,76.925 46.6,48.107 52.327,36.269 C57.861,24.832 63.778,12.369 66.889,5.804 C68.2171796,2.99338166 71.131571,1.28339899 74.233,1.495 C88.598,2.471 129,5.133 142.623,5.133 C155.891,5.133 203.21,3.618 223.233,0.99 C225.637911,0.676444559 228.047045,1.53727424 229.708674,3.30388147 C231.370303,5.07048871 232.082115,7.52778054 231.622,9.909 C230.263,16.889 226.888,27.163 218.917,40.793 C202.825,68.304 193.062,101.13 167.902,116.067 C166.709234,116.784587 165.343983,117.164784 163.952,117.167 C154.196,117.14 111.425,116.9 90.652,114.775 C67.234,112.375 39.025,107.59 18.534,106.259 C13.858,105.956 9.933,105.583 6.657,105.189 Z" id="Path_475" fill="#EDF2F9" fill-rule="nonzero"></path>
                    <g id="Group_103">
                        <g id="Group_102-Clipped">
                            <mask id="mask-2" fill="white">
                                <use xlink:href="#path-1"></use>
                            </mask>
                            <g id="Path_482"></g>
                            <g id="Group_102" mask="url(#mask-2)">
                                <g transform="translate(10.000000, 0.000000)" id="Group_101">
                                    <g>
                                        <g id="Group_94" transform="translate(18.000000, 1.000000)" fill="#FDBD28" fill-rule="nonzero">
                                            <path d="M2.249,110.5 L0.165,108.08 C0.786,107.546 62.439,53.98 78.071,0.232 L81.138,1.123 C65.239,55.79 2.877,109.961 2.249,110.5 Z" id="Path_476"></path>
                                        </g>
                                        <g id="Group_95" transform="translate(71.000000, 3.000000)" fill="#FDBD28" fill-rule="nonzero">
                                            <path d="M3.06,115.031 L0.57,113.031 C1.19,112.258 62.653,35.308 65.395,0.106 L68.579,0.354 C65.76,36.535 5.619,111.843 3.06,115.031 Z" id="Path_477"></path>
                                        </g>
                                        <g id="Group_96" transform="translate(121.000000, 0.000000)" fill="#FDBD28" fill-rule="nonzero">
                                            <path d="M3.084,120.811 L0.557,118.859 C1.184,118.048 63.329,37.259 69.637,0.936 L72.784,1.482 C66.34,38.586 5.664,117.471 3.084,120.811 Z" id="Path_478"></path>
                                        </g>
                                        <g id="Group_100" transform="translate(0.000000, 24.000000)" fill="#FDBD28" fill-rule="nonzero">
                                            <g id="Group_97" transform="translate(42.000000, 0.000000)">
                                                <path d="M179.757,5.215 C178.882,5.215 91.957,5.015 63.324,3.64 C34.847,2.273 1.568,5.178 1.235,5.208 L0.953,2.028 C1.288,1.998 34.778,-0.928 63.477,0.451 C92.033,1.823 178.89,2.019 179.764,2.021 L179.757,5.215 Z" id="Path_479"></path>
                                            </g>
                                            <g id="Group_98" transform="translate(23.000000, 28.000000)">
                                                <path d="M141.658,13.654 C117.231,13.654 86.767,12.907 68.372,9.704 C34.372,3.783 0.541,3.859 0.211,3.867 L0.196,0.674 C0.538,0.683 34.631,0.589 68.92,6.558 C102.908,12.476 178.897,9.917 179.661,9.891 L179.771,13.082 C179.416,13.094 162.8,13.654 141.658,13.654 Z" id="Path_480"></path>
                                            </g>
                                            <g id="Group_99" transform="translate(0.000000, 55.000000)">
                                                <path d="M151.043,15.826 C126.859,15.826 96.337,14.958 78.943,11.138 C48.059,4.355 0.617,3.238 0.143,3.223 L0.214,0.031 C0.692,0.041 48.44,1.169 79.63,8.019 C110.47,14.793 186.039,12.061 186.799,12.032 L186.918,15.224 C185.536,15.276 170.3,15.826 151.043,15.826 Z" id="Path_481"></path>
                                            </g>
                                        </g>
                                    </g>
                                </g>
                            </g>
                        </g>
                    </g>
                </g>
                <path d="M129.6,208.636 C129.6,208.636 173.246,177.804 183.492,166.465 C193.738,155.126 247.779,170.265 255.33,166.965 C255.353,166.939 239.918,187.965 208.374,197.454 C178.968,206.3 139.69,209.7 129.6,208.636 Z" id="Path_483" fill="#92C3F4" fill-rule="nonzero"></path>
            </g>
            <g id="Girl" transform="translate(157.000000, 307.168000)" fill-rule="nonzero">
                <ellipse id="Ellipse_15" fill="#2355F5" cx="53.644" cy="193.857" rx="28.89" ry="4.489"></ellipse>
                <ellipse id="Ellipse_16" fill="#2355F5" cx="189.465" cy="198.346" rx="26.315" ry="4.489"></ellipse>
                <g id="Girl-2">
                    <path d="M191.69,179.268 C191.69,179.268 189.451,182.847 190.763,185.393 C192.075,187.939 211.83,191.567 214.063,193.959 C216.296,196.351 213.986,198.281 211.208,198.589 C208.43,198.897 166.218,202.216 166.372,198.589 C166.526,194.962 172.819,184.489 172.181,180.62 C171.543,176.751 191.69,179.268 191.69,179.268 Z" id="Path_484" fill="#192684"></path>
                    <path d="M125.3,128.023 C126.482052,128.4245 127.155086,129.669003 126.844,130.878 C126.346044,132.653281 126.32638,134.528668 126.787,136.314 L126.787,136.314 C118.967027,136.72744 111.125316,136.27435 103.405,134.963 C94.393,133.309 68.081,125.572 68.081,125.572 C68.081,125.572 69.064,114.86 73.386,113.163 C77.154,111.683 115.5,124.662 125.3,128.023 Z" id="Path_485" fill="#2253F6"></path>
                    <path d="M129.437,124.044 L132.59,117.113 C132.59,117.113 114.399,117.571 112.977,116.187 C112.37,116.344 115.414,118.893 121.202,120.32 C124.009114,120.90115 126.604779,122.23632 128.71,124.182 C128.81522,124.285608 128.964576,124.331 129.109654,124.303461 C129.254731,124.275922 129.377065,124.178958 129.437,124.044 L129.437,124.044 Z" id="Path_486" fill="#B01F1A"></path>
                    <path d="M117.732,129.54 C117.151836,128.245439 117.557759,126.721456 118.705,125.887 C129.779,117.839 184.323,79.98 192.86,108.587 C202.369,140.458 190.379,183.053 190.379,183.053 C190.379,183.053 178.702,186.11 173.348,184.284 C167.994,182.458 162.16,136.76 162.16,136.76 L133.715,156.52 C132.981715,157.029162 132.059765,157.185301 131.199719,156.94598 C130.339673,156.70666 129.630888,156.096745 129.266,155.282 L117.732,129.54 Z" id="Path_487" fill="#129F72"></path>
                    <g id="Group_105" transform="translate(150.000000, 114.000000)" fill="#037A4A">
                        <path d="M13.68,1.358 L13.68,1.295 C13.68,1.322 13.673,1.35 13.671,1.377 L13.68,1.358 Z" id="Path_488"></path>
                        <path d="M11.59,3.8 C10.4,17.857 0.064,31.252 0.064,31.252 L12.164,22.543 C11.3149873,16.332827 11.1225922,10.0504881 11.59,3.8 L11.59,3.8 Z" id="Path_489"></path>
                    </g>
                    <path d="M161.993,155.775 C161.993,155.775 167.547,150.682 177.134,157.96 C183.378,162.701 186.953,176.695 179.51,183.76 C172.067,190.825 148.751,162.008 161.993,155.775 Z" id="Path_490" fill="#037A4A"></path>
                    <path d="M183.646,28.873 C183.833013,27.6883148 184.911461,26.8550286 186.105,26.973 C192.728,27.643 210.26,29.618 212.756,31.983 C215.843,34.909 206.042,66.703 204.113,68.334 C202.28,69.884 181.924,60.977 171.893,58.485 C171.445187,58.3710636 171.075647,58.0556797 170.89275,57.6313363 C170.709854,57.2069929 170.73433,56.7217841 170.959,56.318 C173.879,51.046 182.562,35.22 183.646,28.873 Z" id="Path_491" fill="#007AFF"></path>
                    <path d="M171.017,56.322 C173.164,52.443 178.417,42.871 181.484,35.546 C181.262,34.52 180.715,33.892 179.795,34.231 C177.331,35.141 176.883,38.631 172.787,40.817 C164.937,47.501 168.896,51.198 163.809,56.117 C156.153,64.017 127.163,81.373 127.163,81.373 C116.333,88.404 133.829,109.113 143.43,100.458 L143.43,100.458 C143.43,100.458 174.977,64.529 178.218,60.365 C175.907,59.598 173.76,58.938 171.952,58.489 C171.504007,58.3753074 171.13421,58.0600226 170.951104,57.6356457 C170.767997,57.2112688 170.792343,56.7259223 171.017,56.322 Z" id="Path_492" fill="#FAC896"></path>
                    <path d="M85.682,182.882 C85.6826876,181.809516 85.1107987,180.818242 84.182,180.282 L67.465,170.659 C67.465,170.659 62.871,166.817 54.529,173.982 C46.187,181.147 43.591,182.156 28.513,187.182 C20.561,190.334 23.062,194.559 45.937,194.248 C63.191,194.013 77.031,193.594 82.79,193.403 C84.4076755,193.349048 85.6908994,192.021575 85.69,190.403 L85.682,182.882 Z" id="Path_493" fill="#192684"></path>
                    <path d="M79.133,177.654 L75.738,175.466 C75.5312799,175.332755 75.2660928,175.33131 75.0579331,175.462295 C74.8497733,175.593279 74.7363261,175.832979 74.767,176.077 L76.933,193.3 C76.9728158,193.616536 77.2419694,193.853974 77.561,193.854 L79.514,193.854 C79.6873029,193.853921 79.8530194,193.782903 79.9725999,193.657466 C80.0921805,193.532029 80.1552005,193.363109 80.147,193.19 L79.423,178.156 C79.4128179,177.951729 79.3048696,177.764866 79.133,177.654 L79.133,177.654 Z" id="Path_494" fill="#142160"></path>
                    <path d="M135.79,48.456 L127.059,74.2 C126.555437,75.6847095 125.437843,76.881251 123.990904,77.484828 C122.543965,78.0884051 120.907366,78.0407492 119.498,77.354 L104.628,70.109 C102.094713,68.8748055 100.917121,65.9152274 101.91,63.278 L112.358,35.523 C112.953083,33.942634 114.24606,32.7266396 115.859936,32.2295657 C117.473813,31.7324917 119.226882,32.0103038 120.608,32.982 L133.761,42.236 C135.742755,43.629296 136.568982,46.1621354 135.79,48.456 L135.79,48.456 Z" id="Path_495" fill="#FAC896"></path>
                    <path d="M133.362,55.312 L135.106,49.965 C135.622,48.383 134.974,46.473 133.906,46.195 L122.667,43.63 L122.235,43.806 C121.844,44.356 122.55,45.633 123.069,46.181 L131.916,55.881 C132.411,56.406 133.092,56.139 133.362,55.312 Z" id="Path_496" fill="#F39C55"></path>
                    <path d="M121.587,7.954 C121.587,7.954 131.787,-4.56 144.346,3.354 C156.905,11.268 152.327,21.991 148.336,25.442 C144.345,28.893 121.587,7.954 121.587,7.954 Z" id="Path_497" fill="#F97700"></path>
                    <path d="M133.7,49.812 C133.7,49.812 163.06,52.552 151.567,25.683 C140.074,-1.186 119.767,11.19 115.546,16.94 C111.325,22.69 110.456,48.809 133.7,49.812 Z" id="Path_498" fill="#FAC896"></path>
                    <path d="M133.092,11.55 C135.391966,10.0887931 138.314297,10.0301845 140.671,11.398 C141.273986,11.7328748 141.776892,12.2223194 142.128,12.816 C143.177,14.843 143.861,19.666 139.219,23.509 C134.577,27.352 127.927,28.024 124.302,29.392 C121.1,30.6 124.366,16.815 133.092,11.55 Z" id="Path_499" fill="#F39C55"></path>
                    <path d="M70.682,117.165 C64.854,114.981 53.424,110.016 30.768,116.25 C30.768,116.25 43.137,121.96 52.706,129.677 C56.8127672,132.895296 61.2564067,135.658782 65.959,137.919 C66.6258299,130.825323 68.2135105,123.848672 70.682,117.165 Z" id="Path_500" fill="#B01F1A"></path>
                    <path d="M77.819,178.637 L77.502,192.837 C77.4742788,194.061374 78.3486127,195.120876 79.556,195.326 C89.022,196.932 127.924,203.182 143.456,200.21 C161.205,196.815 179.816,188.239 179.076,172.077 C174.164,159.693 93.554,173.777 79.838,176.264 C78.686427,176.474408 77.8422536,177.466594 77.819,178.637 L77.819,178.637 Z" id="Path_501" fill="#129F72"></path>
                    <path d="M88.094,169.294 C87.9297397,169.296819 87.7867781,169.407053 87.7422854,169.565198 C87.6977928,169.723343 87.7623056,169.891947 87.901,169.98 C98.0583647,176.190415 109.487521,180.025885 121.335,181.2 C141.913,183.157 161.264,182.578 165.784,179.482 C170.304,176.386 99.233,170.432 88.094,169.294 Z" id="Path_502" fill="#037A4A"></path>
                    <path d="M152.708,147.272 C126.315,133.998 109.647,127.208 108.567,124.272 C107.704,121.929 85.067,115.941 76,113.628 C73.8277963,113.077473 71.5903204,114.254888 70.814,116.357 C66.337,128.32 55.337,165.902 90.664,172.889 C132.798,181.223 179.1,180.606 179.1,175.513 C179.1,170.42 179.1,160.545 152.708,147.272 Z" id="Path_503" fill="#129F72"></path>
                    <path d="M215.02,45.959 C214.583,44.303 212.962,40.505 210.698,41.432 C208.434,42.359 214.055,48.57 207.612,58.923 C205.571,62.201 203.895,58.407 203.887,58.385 C203.726991,57.2225982 203.681439,56.0472993 203.751,54.876 C203.919,52.045 200.158,47.333 198.878,49.627 C197.598,51.921 199.533,54.867 197.84,59.188 C197.518,61.218 197.24,65.846 197.116,65.93 C176.37,80.086 157.566,82.63 150.408,83.062 C149.604407,83.1100977 148.85419,83.4803117 148.327159,84.0888447 C147.800127,84.6973777 147.540845,85.4927752 147.608,86.295 C148.067,91.885 149.031,103.502 149.598,109.416 C149.68658,110.319526 150.178889,111.134573 150.937395,111.633447 C151.695901,112.132321 152.639285,112.261538 153.504,111.985 C200.154,97.187 220.375,66.261 215.02,45.959 Z" id="Path_504" fill="#FAC896"></path>
                    <path d="M76.37,115.437 C73.281777,115.704699 70.5888954,117.643927 69.356,120.488 C68.174,123.202 66.947,126.747 66.963,129.729 C66.994,135.46 109.119,133.46 113.994,134.21 C118.558,134.912 99.9,113.445 76.37,115.437 Z" id="Path_505" fill="#037A4A"></path>
                    <path d="M161.738,111.456 C164.202,108.924 162.738,87.073 162.53,81.356 C162.502896,80.6654992 161.927888,80.1238438 161.237,80.138 C157.428329,80.2015581 153.635897,79.6269471 150.017,78.438 C145.412,76.904 137.454,71.557 132.909,68.349 C132.888,68.334 132.869,68.319 132.849,68.302 C131.803949,67.416891 130.691589,66.6144676 129.522,65.902 L129.462,65.857 L129.462,65.864 C107.232,52.464 75.089,79.797 68.762,87.85 C63.462,94.599 40.748,108.593 31.048,114.403 C30.5711235,114.688066 30.3491343,115.260866 30.5093655,115.792843 C30.6695967,116.32482 31.1710122,116.679731 31.726,116.654 C41.013,116.232 60.898,116.454 74.626,124.429 C90.404,133.599 118.672,136.17 125.352,136.365 C125.692746,136.367622 126.017674,136.221436 126.241737,135.964706 C126.465799,135.707976 126.566689,135.366259 126.518,135.029 C126.101,131.029 128.968,124.91 132.327,117.774 C132.512299,117.376943 132.896294,117.109749 133.333,117.074 C146.628,116 160.981,112.234 161.738,111.456 Z" id="Path_506" fill="#E62822"></path>
                    <circle id="Ellipse_17" fill="#231F20" cx="137.887" cy="31.066" r="1.14"></circle>
                    <circle id="Ellipse_18" fill="#231F20" cx="147.689" cy="26.969" r="1.14"></circle>
                    <g id="Group_106" transform="translate(133.000000, 26.000000)" fill="#231F20">
                        <path d="M0.293,3.466 C0.170777151,3.46396682 0.0620108341,3.38797951 0.0180556911,3.27391592 C-0.0258994519,3.15985232 0.00374806658,3.03052635 0.093,2.947 C0.199,2.847 2.714,0.606 4.479,0.758 C4.64164594,0.772325837 4.76297048,0.914093335 4.752,1.077 C4.74721684,1.15620019 4.71040962,1.2300438 4.65004711,1.28154057 C4.5896846,1.33303733 4.51096484,1.35775268 4.432,1.35 C3.18,1.257 1.162,2.789 0.49,3.391 C0.435567451,3.43900667 0.365577009,3.46565278 0.293,3.466 Z" id="Path_507"></path>
                    </g>
                    <g id="Group_107" transform="translate(142.000000, 21.000000)" fill="#231F20">
                        <path d="M0.912,3.211 C0.841580087,3.2112882 0.773674887,3.18484092 0.722,3.137 C0.666194552,3.08651043 0.632973374,3.01574618 0.629777885,2.94055819 C0.626582395,2.8653702 0.653679662,2.79204242 0.705,2.737 C0.796,2.637 2.962,0.295 4.632,0.263 C4.73623752,0.255083409 4.83630185,0.305479405 4.89199814,0.393944412 C4.94769442,0.482409418 4.94988303,0.594426547 4.89768483,0.684999616 C4.84548663,0.775572685 4.7474672,0.829838879 4.643,0.826 C3.455,0.849 1.697,2.488 1.12,3.118 C1.06661289,3.17657148 0.99124813,3.21026822 0.912,3.211 L0.912,3.211 Z" id="Path_508"></path>
                    </g>
                    <g id="Group_108" transform="translate(143.000000, 29.000000)" fill="#F97700">
                        <path d="M2.9,6.949 C2.76192881,6.949 2.65,6.83707119 2.65,6.699 C2.65,6.56092881 2.76192881,6.449 2.9,6.449 C3.291,6.449 4.376,5.802 4.434,5.025 C4.471,4.543 2.654,2.619 0.95,1.113 C0.900011721,1.06926674 0.869567439,1.00737467 0.865436054,0.941084722 C0.861304669,0.874794769 0.883828623,0.809601568 0.928,0.76 C1.01989534,0.657457663 1.17708374,0.647661219 1.281,0.738 C2.156,1.511 5.005,4.108 4.933,5.063 C4.71950763,6.05671406 3.90691525,6.81055037 2.9,6.949 Z" id="Path_509"></path>
                    </g>
                    <path d="M144.775,40.782 C144.775,40.782 148.704,39.782 150.037,38.115 C150.287,37.949 150.513,44.365 144.775,40.782 Z" id="Path_510" fill="#EDF2F9"></path>
                    <circle id="Ellipse_19" fill="#F97700" cx="134.13" cy="35.728" r="1"></circle>
                    <circle id="Ellipse_20" fill="#F97700" cx="137.444" cy="35.32" r="1"></circle>
                    <circle id="Ellipse_21" fill="#F97700" cx="136.34" cy="37.317" r="1"></circle>
                    <circle id="Ellipse_22" fill="#F97700" cx="149.34" cy="30.452" r="1"></circle>
                    <circle id="Ellipse_23" fill="#F97700" cx="151.583" cy="28.616" r="1"></circle>
                    <circle id="Ellipse_24" fill="#F97700" cx="151.699" cy="30.593" r="1"></circle>
                    <path d="M123.394,38.308 L124.619,37.725 C124.619,37.725 120.025,31.144 130.572,26.969 C141.119,22.794 143.727,9.628 136.34,4 C131.281,0.147 123.252,0.516 117.42,1.9 C113.649722,2.73237101 110.108497,4.38332651 107.047,6.736 C103.487,9.577 102.359,13.723 99.405,16.989 C97.027,19.619 93.484,20.829 90.053,21.724 C72.061,26.424 53.66,27.118 37.869,38.109 C29.66,43.57 18.796,42.459 11.029,48.627 C7.26388589,51.8383489 4.52602565,56.0858054 3.156,60.841 C0.79,68.198 -0.931,77.256 2.989,84.407 C5.925,89.762 11.511,92.628 17.289,93.907 C25.081,95.626 33.38,95.018 41.2,93.833 C66.2,90.044 63.468,98.526 83.334,83.033 C89.034,78.709 105.454,79.357 122.743,47.971 C123.063,46.18 113.207,46.905 113.203,37.724 C113.199,28.543 123.085,36.073 123.394,38.308 Z" id="Path_511" fill="#F97700"></path>
                </g>
            </g>
            <g id="box" transform="translate(371.000000, 527.168000)" fill-rule="nonzero">
                <polygon id="Path_512" fill="#F7A90D" points="21.818 61.78 59.073 33.889 203.841 33.889 167.826 61.2"></polygon>
                <path d="M12.137,217.328 L188.257,217.328 C189.575931,217.327845 190.820262,216.716205 191.626,215.672 L228.896,167.417 C229.888539,166.13211 230.063991,164.394601 229.348365,162.937222 C228.632739,161.479843 227.150599,160.556271 225.527,160.556 L24.846,160.556 C22.9124088,160.556201 21.221707,161.859237 20.729,163.729 L8.019,211.985 C7.68287586,213.262129 7.95821742,214.622932 8.76439755,215.66893 C9.57057767,216.714928 10.8163795,217.32777 12.137,217.328 L12.137,217.328 Z" id="Path_513" fill="#97BFF7"></path>
                <path d="M59.073,33.889 L68.773,3.401 C69.3355265,1.63404768 70.9766655,0.434131591 72.831,0.434 L207.326,0.434 C208.651456,0.433750162 209.901399,1.05089887 210.707079,2.1033792 C211.512758,3.15585953 211.782232,4.52356329 211.436,5.803 L203.841,33.889 L59.073,33.889 Z" id="Path_514" fill="#FDBD28"></path>
                <path d="M75.027,74.653 C79.6,68.605 99.515,41.185 102.771,18.229 C102.806884,17.9481538 102.954353,17.6935905 103.180132,17.5227511 C103.405911,17.3519117 103.690975,17.2791917 103.971,17.321 C109.424,18.13 134.364,20.376 143.259,15.713 C143.590224,15.5306583 143.993578,15.5389327 144.317045,15.7347046 C144.640512,15.9304766 144.83492,16.2839855 144.827,16.662 C144.578,27.024 141.757,74.84 124.89,90.354 C124.60938,90.6081132 124.214956,90.6941555 123.854,90.58 C118.893,89.046 83.312,78.58 75.576,76.307 C75.2407683,76.2111653 74.9745346,75.9558931 74.8646985,75.6249843 C74.7548624,75.2940755 74.8156104,74.9302707 75.027,74.653 L75.027,74.653 Z" id="Path_515" fill="#8DBFFC"></path>
                <path d="M22.171,61.78 L2.28,49.4 C1.06543945,48.6437178 0.311776884,47.3281179 0.27373564,45.8978477 C0.235694396,44.4675774 0.91835823,43.1137752 2.091,42.294 L33.271,20.511 C34.7079459,19.5075141 36.6130568,19.4872723 38.071,20.46 L59.071,34.471 L22.171,61.78 Z" id="Path_516" fill="#FDBD28"></path>
                <path d="M54.684,53.259 C54.17,49.746 52.452,35.986 55.478,26.298 C55.6305603,25.8226327 56.0941468,25.5181567 56.591,25.567 C60.812,25.961 79.4,28.489 86.816,26.342 C87.1791927,26.2383691 87.5700732,26.3369923 87.8406269,26.6005241 C88.1111807,26.8640558 88.2200464,27.2522083 88.126,27.618 C86.786,32.967 83.634,47.018 84.62,51.174 C85.739,55.891 60.627,54.483 55.661,54.159 C55.1629977,54.1289173 54.754772,53.7528649 54.684,53.259 L54.684,53.259 Z" id="Path_517" fill="#F97700"></path>
                <path d="M81.622,27.6 C77.271,28.4 65.111,30.644 53.969,32.681 C53.4123029,39.6119258 53.6414262,46.5835825 54.652,53.463 C54.7274444,53.9892045 55.1623856,54.3898851 55.693,54.422 C59.268,54.655 72.621,55.412 80.563,54.335 C80.7351396,45.8227483 81.5470952,37.3354893 82.992,28.945 C83.0558397,28.5676888 82.9311293,28.183005 82.658058,27.9149167 C82.3849867,27.6468285 81.9980716,27.5292231 81.622,27.6 Z" id="Path_518" fill="#FF5A25"></path>
                <path d="M134.042,76.047 C134.456,75.729 142.773,56.147 144.564,38.969 C144.616427,38.401189 145.113214,37.9794972 145.682,38.02 C150.873,38.395 174.256,38.761 174.338,38.753 L187.276,39.141 C187.600597,39.1508164 187.902822,39.3087449 188.096231,39.5696132 C188.289641,39.8304815 188.352931,40.1655577 188.268,40.479 C187.495,43.426 184.25,52.633 170.94,79.909 C170.836612,80.1190726 170.805332,80.3573611 170.851,80.587 C170.927,80.963 171.051,81.587 171.178,82.187 C171.250601,82.5428348 171.136695,82.911123 170.87588,83.163838 C170.615066,83.416553 170.243368,83.5187867 169.89,83.435 C162.853,81.781 135.359,75.703 134.831,75.574 C134.824,75.577 134.037,76.051 134.042,76.047 Z" id="Path_519" fill="#FF5A25"></path>
                <path d="M143.231,39.1996823 C134.258,39.231 123.139,39.255 119.07,39.2 C118.722921,39.1918371 118.390823,39.3413158 118.166795,39.6065356 C117.942766,39.8717554 117.85092,40.2241723 117.917,40.565 C119.447,48.165 113.348,66.165 111.438,71.514 C111.311677,71.8670787 111.363671,72.2594307 111.577597,72.5674204 C111.791523,72.8754102 112.141036,73.0611087 112.516,73.066 C116.395,73.129 126.486,73.282 135.184,73.328 C139.244,62.845 141.727,50.275 143.231,39.1996823 Z" id="Path_520" fill="#69B6F4"></path>
                <path d="M114.223,72.135 C115.967,67.248 121.538,50.81 120.14,43.865 C120.0801,43.5537609 120.164134,43.2321256 120.368622,42.9899636 C120.57311,42.7478015 120.876125,42.6110797 121.193,42.618 C127.022,42.697 148.693,42.599 153.793,42.574 C154.078833,42.5715119 154.353511,42.6847866 154.5545,42.8880359 C154.755489,43.0912852 154.865684,43.3672124 154.86,43.653 C154.773,48.168 154.116,65.61 149.197,73.528 C149.352,74.072 121.961,73.662 115.206,73.552 C114.863691,73.5475967 114.544625,73.377992 114.349495,73.0967109 C114.154365,72.8154298 114.107243,72.4571725 114.223,72.135 L114.223,72.135 Z" id="Path_521" fill="#4174F2"></path>
                <path d="M157.181,69.181 C157.431,68.723 157.141,47.452 151.847,31.009 C151.665719,30.4683904 151.950814,29.8821885 152.488,29.691 C157.388,27.939 178.931,18.839 179.003,18.798 L191,13.933 C191.301033,13.8112436 191.641226,13.833902 191.923452,13.9945059 C192.205679,14.1551098 192.398918,14.4360074 192.448,14.757 C192.929,17.766 193.675,27.498 192.503,57.826 C192.493185,58.0598228 192.560662,58.2903683 192.695,58.482 L193.641,59.818 C193.851183,60.114171 193.895785,60.4970905 193.759302,60.8336411 C193.622819,61.1701918 193.324103,61.4138836 192.967,61.48 C185.861,62.806 158.252,68.339 157.717,68.434 C157.707,68.435 157.178,69.187 157.181,69.181 Z" id="Path_522" fill="#F97700"></path>
                <path d="M31.843,71.1 C31.321,66.1 29.45,45.395 33.468,38.926 C33.6298961,38.6754696 33.8926287,38.5076126 34.188,38.466 C38.406,37.787 70.928,31.795 78.356,30.425 C78.696929,30.3605287 79.0478281,30.4669932 79.295456,30.7100354 C79.5430839,30.9530776 79.6560881,31.3019256 79.598,31.644 C78.738,36.694 76.198,53.41 78.06,64.672 C78.1116562,64.959459 78.0427627,65.2555087 77.8694981,65.4906265 C77.6962335,65.7257443 77.4338629,65.8792156 77.144,65.915 C70.78,66.684 39.309,71.149 33.044,72.039 C32.7592022,72.0796815 32.4701264,72.0025194 32.2434865,71.8253213 C32.0168466,71.6481233 31.8722257,71.3862003 31.843,71.1 L31.843,71.1 Z" id="Path_523" fill="#129F72"></path>
                <path d="M78.909,64.173 C77.362,54.837 78.516,42.167 79.609,33.898 C65.929,35.389 56.656,42.242 56.351,42.852 C53.928,47.852 55.079,61.658 55.851,68.566 C65.483,67.22 74.618,65.966 77.878,65.566 C78.2034354,65.5265386 78.4982933,65.3549012 78.6933162,65.0914027 C78.8883392,64.8279042 78.9663409,64.4957653 78.909,64.173 L78.909,64.173 Z" id="Path_524" fill="#037A4A"></path>
                <path d="M60.136,72.039 C59.8546236,72.082254 59.567716,72.0098477 59.3405598,71.8382562 C59.1134036,71.6666647 58.9653186,71.4104822 58.93,71.128 C58.391,66.923 56.63,51.51 59.073,46.472 C59.423,45.772 73.396,35.583 91.812,39.294 C92.2922979,39.3926038 92.6446592,39.8042409 92.668,40.294 C92.81,43.867 93.041,58.018 94.737,65.772 C94.7978028,66.0584303 94.7369465,66.3572478 94.5689658,66.5970848 C94.4009852,66.8369217 94.1409624,66.996244 93.851,67.037 C88.424,67.839 65.378,71.261 60.136,72.039 Z" id="Path_525" fill="#C6DDFF"></path>
                <path d="M156.778,55.955 C156.778,55.955 162.725,59.707 167.116,55.955 C171.507,52.203 193.044,32.835 193.044,32.835 C193.044,32.835 193.196,39.35 192.664,46.183 C192.132,53.016 166.674,71.694 161.173,67.644 C159.133,65.546 158.827,69.153 156.778,55.955 Z" id="Path_526" fill="#E56A05"></path>
                <path d="M167.826,61.2 L203.841,33.892 L203.841,167.618 C203.840983,168.76911 203.374907,169.87117 202.549,170.673 L166.491,205.685 L167.826,61.2 Z" id="Path_527" fill="#F7A90D"></path>
                <path d="M167.826,61.2 L196.326,82.1 C198.038493,83.3550585 200.413816,83.1571505 201.895,81.636 L226.035,56.836 C226.884646,55.963288 227.319776,54.7684351 227.230307,53.5537252 C227.140839,52.3390154 226.535342,51.2208092 225.567,50.482 L203.837,33.893 L167.826,61.2 Z" id="Path_528" fill="#FDBD28"></path>
                <path d="M22.171,61.197 L167.826,61.197 L167.826,202.597 C167.826,203.726292 167.377391,204.809331 166.578861,205.607861 C165.780331,206.406391 164.697292,206.855 163.568,206.855 L26.429,206.855 C24.0773715,206.855 22.171,204.948628 22.171,202.597 L22.171,61.197 Z" id="Path_2216" fill="#FDBD28"></path>
                <path d="M22.171,61.2 L6.039,78.718 C4.89440151,79.9617972 4.59367597,81.76477 5.27262626,83.3127246 C5.95157654,84.8606793 7.48169324,85.8606241 9.172,85.861 L150.115,85.861 C151.586095,85.8606008 152.952831,85.1010512 153.73,83.852 L167.83,61.2 L22.171,61.2 Z" id="Path_529" fill="#FFC248"></path>
            </g>
            <g id="elements" transform="translate(201.000000, 117.168000)" fill-rule="nonzero">
                <path d="M494.025,269.365 C490.02935,269.364448 486.790632,266.124983 486.791,262.129333 C486.791368,258.133683 490.030683,254.894816 494.026333,254.895 C498.021983,254.895184 501.261,258.13435 501.261,262.13 C501.25604,266.124114 498.019115,269.360592 494.025,269.365 Z M494.025,257.165 C491.283167,257.165552 489.060816,259.3885 489.061,262.130333 C489.061184,264.872167 491.283833,267.094816 494.025667,267.095 C496.7675,267.095184 498.990448,264.872833 498.991,262.131 C498.988795,259.389106 496.766894,257.166757 494.025,257.164 L494.025,257.165 Z M535.038,209.388 L535.038,204.383 C535.038,203.756157 534.529843,203.248 533.903,203.248 C533.276157,203.248 532.768,203.756157 532.768,204.383 L532.768,209.388 C532.768,210.014843 533.276157,210.523 533.903,210.523 C534.529843,210.523 535.038,210.014843 535.038,209.388 Z M535.038,218.148 L535.038,213.142 C535.038,212.515157 534.529843,212.007 533.903,212.007 C533.276157,212.007 532.768,212.515157 532.768,213.142 L532.768,218.148 C532.768,218.774843 533.276157,219.283 533.903,219.283 C534.529843,219.283 535.038,218.774843 535.038,218.148 Z M542.064,211.265 C542.064,210.638157 541.555843,210.13 540.929,210.13 L536.429,210.13 C536.023503,210.13 535.648809,210.34633 535.446061,210.6975 C535.243313,211.04867 535.243313,211.48133 535.446061,211.8325 C535.648809,212.18367 536.023503,212.4 536.429,212.4 L540.929,212.4 C541.230194,212.4 541.519037,212.280283 541.73192,212.067213 C541.944803,211.854143 542.064265,211.565194 542.064,211.264 L542.064,211.265 Z M532.508,211.265 C532.508,210.638157 531.999843,210.13 531.373,210.13 L526.873,210.13 C526.467503,210.13 526.092809,210.34633 525.890061,210.6975 C525.687313,211.04867 525.687313,211.48133 525.890061,211.8325 C526.092809,212.18367 526.467503,212.4 526.873,212.4 L531.373,212.4 C531.674194,212.4 531.963037,212.280283 532.17592,212.067213 C532.388803,211.854143 532.508265,211.565194 532.508,211.264 L532.508,211.265 Z" id="Path_530" fill="#F3C04C"></path>
                <g id="Group_110">
                    <g id="Group_109" transform="translate(5.000000, 41.000000)" fill="#499D75">
                        <path d="M8.3,15.5 C5.24954029,15.6442934 2.41836234,13.9174914 1.15040036,11.139291 C-0.117561621,8.36109062 0.432993607,5.09087614 2.54072253,2.8809884 C4.64845145,0.671100662 7.88896767,-0.0335044997 10.7240279,1.10164252 C13.559088,2.23678955 15.4178593,4.9831295 15.418,8.037 C15.506345,12.0607506 12.3234261,15.3979413 8.3,15.5 L8.3,15.5 Z M8.3,2.915 C6.20667265,2.81608243 4.26387338,4.00112305 3.39378214,5.90762386 C2.52369091,7.81412467 2.90148699,10.0582415 4.34784359,11.5747693 C5.79420018,13.0912972 8.01791599,13.5749068 9.96346964,12.7960454 C11.9090233,12.017184 13.1847079,10.1326631 13.185,8.037 C13.2465048,5.27499937 11.061802,2.98385662 8.3,2.914 L8.3,2.915 Z" id="Path_531"></path>
                    </g>
                    <path d="M8.411,15.534 C5.36060785,15.6778806 2.52972602,13.9508007 1.26208375,11.17255 C-0.00555853174,8.39429926 0.545260374,5.1242388 2.65308432,2.91456187 C4.76090826,0.704884939 8.00135704,0.000478378992 10.8362931,1.13570149 C13.6712291,2.27092461 15.5298786,5.01721646 15.53,8.071 C15.6177855,12.0949163 12.4345795,15.4319392 8.411,15.534 L8.411,15.534 Z M42.834,15.94 L42.834,10.777 C42.8513672,10.3666596 42.6423481,9.97983373 42.2895954,9.76948544 C41.9368427,9.55913714 41.4971573,9.55913714 41.1444046,9.76948544 C40.7916519,9.97983373 40.5826328,10.3666596 40.6,10.777 L40.6,15.94 C40.5826328,16.3503404 40.7916519,16.7371663 41.1444046,16.9475146 C41.4971573,17.1578629 41.9368427,17.1578629 42.2895954,16.9475146 C42.6423481,16.7371663 42.8513672,16.3503404 42.834,15.94 L42.834,15.94 Z M42.834,24.974 L42.834,19.811 C42.8513672,19.4006596 42.6423481,19.0138337 42.2895954,18.8034854 C41.9368427,18.5931371 41.4971573,18.5931371 41.1444046,18.8034854 C40.7916519,19.0138337 40.5826328,19.4006596 40.6,19.811 L40.6,24.974 C40.5826328,25.3843404 40.7916519,25.7711663 41.1444046,25.9815146 C41.4971573,26.1918629 41.9368427,26.1918629 42.2895954,25.9815146 C42.6423481,25.7711663 42.8513672,25.3843404 42.834,24.974 L42.834,24.974 Z M49.746,17.874 C49.7605324,17.2428853 49.2610969,16.7192837 48.63,16.704 L44.206,16.704 C43.5825607,16.7355724 43.0932769,17.2502617 43.0932769,17.8745 C43.0932769,18.4987383 43.5825607,19.0134276 44.206,19.045 L48.63,19.045 C49.2608558,19.0291718 49.759977,18.5058995 49.746,17.875 L49.746,17.874 Z M40.346,17.874 C40.3605324,17.2428853 39.8610969,16.7192837 39.23,16.704 L34.8,16.704 C34.1765607,16.7355724 33.6872769,17.2502617 33.6872769,17.8745 C33.6872769,18.4987383 34.1765607,19.0134276 34.8,19.045 L39.224,19.045 C39.5278718,19.0387032 39.8167719,18.9118477 40.0270431,18.6923853 C40.2373143,18.4729229 40.3517014,18.1788631 40.345,17.875 L40.346,17.874 Z" id="Path_532" fill="#2355F5"></path>
                </g>
            </g>
            <g id="plant" transform="translate(622.000000, 456.168000)" fill-rule="nonzero">
                <ellipse id="Ellipse_25" fill="#97BFF7" cx="45.768" cy="218.433" rx="28.731" ry="5.619"></ellipse>
                <g id="Group_111" transform="translate(15.000000, 0.000000)">
                    <path d="M30.342,38 C30.342,38 8.955,3.671 27.108,0.794 C27.108,0.792 39.644,-2.024 30.342,38 Z M45.286,25.822 C30.778,20.408 32.791,54.55 32.791,54.55 C55.642,28.951 45.286,25.82 45.286,25.82 L45.286,25.822 Z M57.025,47.522 C41.649,35.761 32.016,77.166 32.016,77.166 C68.253,55.04 57.025,47.522 57.025,47.522 Z M62.852,71.106 C47.561,56.624 32.535,100.222 32.535,100.222 C74.141,80.523 62.852,71.106 62.852,71.106 Z M31.513,60.861 C31.513,60.861 23.255,27.708 11.043,37.361 C11.043,37.358 2.112,43.543 31.513,60.861 L31.513,60.861 Z M33.626,88.292 C33.626,88.292 18.226,48.74 4.677,62.641 C4.677,62.641 -5.369,71.729 33.626,88.292 Z M30.968,114.292 C30.968,114.292 17.531,70.158 1.725,84.058 C1.725,84.055 -9.9,93.044 30.968,114.289 L30.968,114.292 Z" id="Path_533" fill="#8DBFFC"></path>
                    <path d="M30.233,114.961 C30.3404754,115.079784 30.4749142,115.17101 30.625,115.227 C30.257,119.486333 29.7903333,123.783 29.225,128.117 C29.2846143,128.558789 29.2717791,129.007343 29.187,129.445 C29.794,129.473 30.402,129.498 31.01,129.529 C32.237,120.523 33.02,111.601 33.429,102.989 C35.929,95.148 45.792,87.32 45.891,87.243 C46.3229542,86.8983326 46.402285,86.2725504 46.07,85.831 C45.912183,85.619921 45.6758541,85.4814714 45.4145617,85.4470214 C45.1532692,85.4125715 44.8891323,85.4850375 44.682,85.648 C44.335,85.925 37.558,91.311 33.632,97.883 C33.7353333,94.7396667 33.7946667,91.6496667 33.81,88.613 C33.8339706,88.4904949 33.8339706,88.3645051 33.81,88.242 C33.832,84.405 33.796,80.659 33.71,77.034 C36.097,72.679 45.044,61.595 45.135,61.482 C45.480323,61.0502643 45.4210378,60.4224606 45.001,60.063 C44.799003,59.8946149 44.537756,59.8145757 44.2761021,59.8409104 C44.0144481,59.8672451 43.7743906,59.9977391 43.61,60.203 C43.292,60.593 37.07,68.303 33.61,73.453 C33.463,69.074 33.248,64.895 32.99,60.942 C32.99,60.922 33.009,60.913 33.01,60.891 C33.025,60.759 34.51,47.491 40.246,37.059 C40.5149019,36.5756185 40.3472483,35.9659288 39.869,35.688 C39.6402599,35.5575835 39.3685957,35.5249102 39.1154555,35.5973704 C38.8623152,35.6698306 38.6490866,35.8413023 38.524,36.073 C35.7233957,41.4176109 33.6612366,47.1176474 32.394,53.017 C30.894,35.456 28.761,24.103 28.711,23.85 C28.6647439,23.5892932 28.5154748,23.3581873 28.2968589,23.208806 C28.078243,23.0594247 27.8086918,23.0043488 27.549,23.056 C27.0093869,23.1677783 26.6619031,23.6950413 26.772,24.235 C28.6965183,35.399029 30.0429795,46.6550307 30.806,57.958 L21.674,47.914 C21.4973746,47.7199607 21.2501232,47.605122 20.987917,47.595341 C20.7257107,47.58556 20.4705908,47.6816588 20.28,47.862 C19.8796008,48.2434365 19.8556602,48.8743155 20.226,49.285 L31.026,61.163 C31.499,68.431 31.819,76.486 31.846,85.071 C27.754,79.923 19.679,73.56 19.27,73.238 C19.0629433,73.0753536 18.7989555,73.0032648 18.5379712,73.0381004 C18.2769869,73.072936 18.0411486,73.2117404 17.884,73.423 C17.5509531,73.8641949 17.6308563,74.4905474 18.064,74.834 C18.179,74.924 29.398,83.756 31.841,88.61 C31.79,96.302 31.497,104.368 30.851,112.642 C23.093,103.856 17.031,97.526 16.968,97.46 C16.7868223,97.2679697 16.5353889,97.1578064 16.2713967,97.1547893 C16.0074045,97.1517723 15.7535191,97.2561605 15.568,97.444 C15.1787679,97.8358214 15.1712395,98.4659918 15.551,98.867 C15.614,98.935 22.091,105.7 30.233,114.961 Z" id="Path_534" fill="#3478F6"></path>
                </g>
                <g id="Group_112" transform="translate(44.000000, 31.000000)">
                    <path d="M41.426,31.554 C41.426,31.554 34.726,-2.817 50.464,0.682 C50.464,0.682 61.59,2.431 41.426,31.554 Z M57.46,26.568 C47.306,17.582 38.233,45.61 38.233,45.61 C64.94,32.388 57.46,26.568 57.46,26.568 Z M60.239,47.726 C51.367,33.377 30.5,63.5 30.5,63.5 C67.055,57.344 60.239,47.726 60.239,47.726 Z M57.6,68.5 C49.651,51.995 23.689,82.155 23.689,82.155 C63.866,79.664 57.6,68.5 57.6,68.5 Z M35.209,50.261 C35.209,50.261 38.868,21.032 25.862,24.867 C25.86,24.869 16.621,26.971 35.207,50.263 L35.209,50.261 Z M28.325,72.938 C28.325,72.938 28.158,36.292 12.725,43.107 C12.721,43.109 1.66,47.184 28.323,72.94 L28.325,72.938 Z M17.994,92.938 C17.994,92.938 20.868,53.247 3.594,59.338 C3.588,59.339 -8.729,62.831 17.992,92.937 L17.994,92.938 Z" id="Path_535" fill="#C6DDFF"></path>
                    <path d="M49.333,32.091 C49.1865402,31.9223606 48.9788168,31.8191689 48.7559498,31.8043361 C48.5330828,31.7895034 48.3135164,31.8642571 48.146,32.012 C44.1980013,35.398316 40.7058737,39.2823794 37.757,43.567 C42.363,29.349 44.421,19.825 44.466,19.613 C44.5165126,19.3991244 44.4745806,19.1738642 44.3504927,18.9924903 C44.2264048,18.8111164 44.0316449,18.6904143 43.814,18.66 C43.349186,18.5971002 42.9139969,18.9017325 42.814,19.36 C40.644657,28.7030833 37.9968353,37.9285709 34.881,47 L31.017,36.507 C30.9374344,36.3018321 30.77687,36.138498 30.5730926,36.0554356 C30.3693153,35.9723731 30.1403212,35.9769178 29.94,36.068 C29.5063901,36.2427312 29.2825098,36.7237241 29.428,37.168 L34,49.577 C31.981,55.418 29.578,61.838 26.774,68.586 C25.256,63.377 21.009,56.075 20.793,55.706 C20.6758779,55.5183416 20.4879848,55.3858864 20.2718811,55.3386372 C20.0557775,55.2913881 19.8297511,55.3333435 19.645,55.455 C19.241203,55.6910101 19.0977629,56.2050036 19.321,56.616 C19.381,56.716 25.286,66.856 25.605,71.362 C23.032,77.391 20.147,83.641 16.916,89.953 C13.716,80.84 11.039,74.139 11.011,74.07 C10.925038,73.8669031 10.7596089,73.7079012 10.5532667,73.6300505 C10.3469245,73.5521998 10.1176946,73.562301 9.919,73.658 C9.48966242,73.844051 9.27934453,74.3321638 9.439,74.772 C9.466,74.844 12.329,82.001 15.672,91.597 C15.7165964,91.7213477 15.7927539,91.8319656 15.893,91.918 C14.628,94.339 13.293,96.763 11.933,99.184 C12.533,99.231 13.133,99.284 13.733,99.332 C16.775,93.902 19.579,88.458 22.121,83.104 C26.669,77.663 36.99,74.325 37.091,74.296 C37.5389069,74.1546408 37.8027983,73.6926131 37.697,73.235 C37.6367657,73.0237308 37.492301,72.8465286 37.2974985,72.7449666 C37.102696,72.6434045 36.8747,72.6264208 36.667,72.698 C32.1308437,74.1974202 27.8474421,76.3740153 23.962,79.154 C25.078,76.7153333 26.142,74.3056667 27.154,71.925 C27.2131691,71.8368555 27.2555468,71.7385393 27.279,71.635 C28.558,68.629 29.763,65.677 30.885,62.805 C34.195,60.065 44.87,53.905 44.979,53.85 C45.387098,53.6230611 45.5458096,53.1161511 45.34,52.697 C45.2302577,52.5046213 45.0467795,52.3653418 44.8319801,52.3113589 C44.6171807,52.2573759 44.3896549,52.2933626 44.202,52.411 C43.826,52.627 36.402,56.911 31.983,59.963 C33.308,56.484 34.517,53.139 35.615,49.963 C35.624,49.949 35.641,49.944 35.649,49.929 C35.702,49.829 41.236,39.835 49.176,33.278 C49.544901,32.9922854 49.6149343,32.4627982 49.333,32.091 L49.333,32.091 Z" id="Path_536" fill="#3478F6"></path>
                </g>
                <g id="Group_114" transform="translate(0.000000, 61.000000)">
                    <g id="Group_113" transform="translate(5.000000, 0.000000)" fill="#EDF2F9">
                        <path d="M9.242,22 C9.242,22 13.791,-1.783 2.916,0.674 C2.916,0.675 -4.773,1.912 9.242,22 Z" id="Path_537"></path>
                    </g>
                    <path d="M3.142,18.593 C10.142,12.355 16.485,31.713 16.485,31.713 C-2.016,22.636 3.142,18.593 3.142,18.593 Z M21.876,44.066 C21.876,44.066 7.376,23.286 1.276,33.23 C1.273,33.23 -3.417,39.9 21.876,44.066 L21.876,44.066 Z M26.633,56.95 C26.633,56.95 8.606,36.158 3.15,47.591 C3.15,47.591 -1.157,55.325 26.633,56.95 L26.633,56.95 Z M24.99,17.34 C15.99,14.72 18.59,34.923 18.59,34.923 C31.384,18.771 24.99,17.34 24.99,17.34 L24.99,17.34 Z M34.12,29.922 C23.43,25.246 23.404,50.588 23.404,50.588 C41.779,32.712 34.12,29.922 34.12,29.922 L34.12,29.922 Z M40.475,41.122 C28.513,36.951 30.598,64.391 30.598,64.391 C49,43.506 40.475,41.122 40.475,41.122 Z" id="Path_538" fill="#C6DDFF"></path>
                    <path d="M26.737,58.68 C28.158,61.82 29.714,64.999 31.379,68.18 C31.825,68.18 32.272,68.164 32.717,68.163 C32.129,67.055 31.5556667,65.9463333 30.997,64.837 C31.0694812,64.7729504 31.1254031,64.6923268 31.16,64.602 C33.724,57.654 35.9,52.464 35.92,52.412 C36.029816,52.211172 36.0158032,51.9653596 35.883876,51.7783124 C35.7519488,51.5912651 35.5250938,51.4955735 35.2990591,51.531626 C35.0730244,51.5676784 34.8871937,51.7291931 34.82,51.948 C34.799,51.998 32.765,56.858 30.312,63.456 C28.135,59.019 26.203,54.617 24.49,50.367 C24.804,47.135 29.2,39.739 29.245,39.667 C29.3612782,39.4827344 29.3685239,39.2499144 29.2639289,39.0587748 C29.1593339,38.8676353 28.9593392,38.748221 28.7414575,38.7468137 C28.5235757,38.7454065 28.3220552,38.8622275 28.215,39.052 C26.4304413,42.0273741 24.9240633,45.160975 23.715,48.413 C21.849,43.653 20.265,39.119 18.941,34.989 L22.435,26 C22.5402995,25.6954759 22.3862713,25.3621529 22.0861114,25.2449911 C21.7859514,25.1278293 21.4468439,25.268666 21.318,25.564 L18.365,33.164 C16.3194822,26.7323961 14.6134618,20.1977137 13.254,13.587 C13.1825333,13.2732635 12.8763037,13.0717576 12.5598938,13.1302626 C12.2434838,13.1887675 12.0295557,13.4864519 12.075,13.805 C12.103,13.956 13.384,20.72 16.386,30.78 C14.375712,27.7921106 11.9633656,25.0954243 9.217,22.766 C9.05191937,22.6209338 8.82073943,22.577725 8.61440629,22.6533719 C8.40807315,22.7290188 8.25960594,22.9114157 8.22741161,23.1288079 C8.19521728,23.3462 8.28444783,23.5637984 8.46,23.696 C13.982,28.196 17.726,35.209 17.76,35.279 C17.766,35.289 17.777,35.293 17.784,35.302 C18.504,37.549 19.299,39.913 20.174,42.37 C17.093,40.293 11.891,37.41 11.628,37.264 C11.4399108,37.1503746 11.2047545,37.1486603 11.0150287,37.2595315 C10.825303,37.3704026 10.7113645,37.5761196 10.7180304,37.7957644 C10.7246963,38.0154091 10.8509001,38.2138381 11.047,38.313 C11.123,38.353 18.599,42.497 20.901,44.377 C21.644,46.404 22.444,48.486 23.295,50.606 C23.3101038,50.6773778 23.3386074,50.7452435 23.379,50.806 C24.055,52.484 24.7656667,54.1823333 25.511,55.901 C22.7869,54.0005528 19.7775546,52.5460078 16.596,51.592 C16.3887997,51.5287387 16.1635878,51.5820874 16.0067839,51.7315749 C15.84998,51.8810624 15.7859389,52.1034702 15.8392348,52.3134547 C15.8925307,52.5234393 16.0548857,52.6883858 16.264,52.745 C16.329,52.761 23.607,54.9 26.737,58.68 Z" id="Path_539" fill="#3478F6"></path>
                </g>
                <path d="M18.6,140.535 L26.521,214.491 C26.8515622,217.562769 29.4444954,219.891364 32.534,219.891 L57.065,219.891 C60.172977,219.891381 62.7751319,217.535691 63.083,214.443 L70.518,139.777 C70.6890105,138.058657 70.1173455,136.349163 68.9470781,135.079351 C67.7768108,133.809539 66.1195627,133.100526 64.393,133.131 L24.505,133.841 C22.8074859,133.871401 21.2009177,134.6139 20.0777828,135.887103 C18.954648,137.160306 18.4183836,138.846956 18.6,140.535 Z" id="Path_540" fill="#013BFF"></path>
                <path d="M17.455,126.579 L71.455,126.579 C72.3237439,126.579 73.028,127.283256 73.028,128.152 L73.028,138.113 C73.028,138.530186 72.8622737,138.930284 72.567279,139.225279 C72.2722842,139.520274 71.8721855,139.686 71.455,139.686 L17.455,139.686 C17.0376411,139.686 16.6373908,139.520137 16.3423673,139.224925 C16.0473438,138.929714 15.8817347,138.529359 15.882,138.112 L15.882,128.152 C15.882,127.283256 16.5862561,126.579 17.455,126.579 Z" id="Path_2215" fill="#007AFF"></path>
            </g>
        </g>
    </g>
</svg>